<svg xmlns="http://www.w3.org/2000/svg" width="192" height="192" viewBox="0 0 192 192">
  <defs>
    <linearGradient id="iconGradient" x1="0%" y1="0%" x2="100%" y2="100%">
      <stop offset="0%" style="stop-color:#00d9ff;stop-opacity:1" />
      <stop offset="100%" style="stop-color:#0099ff;stop-opacity:1" />
    </linearGradient>
  </defs>
  
  <!-- Background -->
  <rect width="192" height="192" rx="24" fill="#0a0e1a"/>
  
  <!-- Outer hexagon -->
  <path d="M96 24 L156 54 L156 114 L96 144 L36 114 L36 54 Z" 
        fill="url(#iconGradient)" 
        opacity="0.2"/>
  <path d="M96 24 L156 54 L156 114 L96 144 L36 114 L36 54 Z" 
        stroke="url(#iconGradient)" 
        stroke-width="3" 
        fill="none"/>
  
  <!-- Middle hexagon -->
  <path d="M96 42 L138 64 L138 108 L96 130 L54 108 L54 64 Z" 
        stroke="url(#iconGradient)" 
        stroke-width="2.5" 
        fill="none"
        opacity="0.8"/>
  
  <!-- Center circle -->
  <circle cx="96" cy="84" r="24" fill="url(#iconGradient)"/>
  
  <!-- AI text -->
  <text x="96" y="92" 
        text-anchor="middle" 
        font-family="Arial, sans-serif" 
        font-weight="bold" 
        font-size="18" 
        fill="#0a0e1a">AI</text>
  
  <!-- Connecting nodes -->
  <circle cx="96" cy="42" r="5" fill="url(#iconGradient)"/>
  <circle cx="138" cy="64" r="4" fill="url(#iconGradient)"/>
  <circle cx="138" cy="108" r="4" fill="url(#iconGradient)"/>
  <circle cx="96" cy="130" r="4" fill="url(#iconGradient)"/>
  <circle cx="54" cy="108" r="4" fill="url(#iconGradient)"/>
  <circle cx="54" cy="64" r="4" fill="url(#iconGradient)"/>
  
  <!-- FORGE text -->
  <text x="96" y="168" 
        text-anchor="middle" 
        font-family="Arial, sans-serif" 
        font-weight="bold" 
        font-size="20" 
        fill="url(#iconGradient)">FORGE</text>
</svg>
